<svg width="130" height="90" viewBox="0 0 130 90" fill="none" xmlns="http://www.w3.org/2000/svg">
    <path d="M53.7931 24.3V45H35.8621C28.4348 45 22.4138 38.9558 22.4138 31.5L22.4138 13.5C22.4138 6.04416 16.3928 9.83506e-07 8.96552 9.83506e-07L1.71004e-06 0L0 31.5C1.25663e-06 39.8543 3.30603 47.8665 9.19079 53.7739C15.0756 59.6813 23.057 63 31.3793 63H53.7931V90H62.7586C70.1859 90 76.2069 83.9558 76.2069 76.5V10.8L53.7931 24.3Z" fill="#223232" />
    <path fill-rule="evenodd" clip-rule="evenodd" d="M76.2069 63H98.6207C115.951 63 130 48.897 130 31.5C130 14.103 115.951 1.0372e-06 98.6207 3.43323e-06L67.2414 0C59.8141 0 53.7931 6.04415 53.7931 13.5V76.5L76.2069 63ZM76.2069 18H94.1379C101.565 18 107.586 24.0442 107.586 31.5C107.586 38.9558 101.565 45 94.1379 45H76.2069V18Z" fill="#223232" />
</svg>